<?xml version="1.0" encoding="utf-8"?>
<!-- Generator: Adobe Illustrator 19.0.0, SVG Export Plug-In . SVG Version: 6.00 Build 0)  -->
<svg version="1.1" id="Layer_1" xmlns="http://www.w3.org/2000/svg" xmlns:xlink="http://www.w3.org/1999/xlink" x="0px" y="0px"
	 viewBox="0 0 1728 1712" style="enable-background:new 0 0 1728 1712;" xml:space="preserve">
<style type="text/css">
	.st0{fill:#FFFFFF;}
</style>
<g id="XMLID_1_">
	<g id="XMLID_7_">
		<path id="XMLID_8_" class="st0" d="M72.2,685.4l21.4-70.9c15.3-50.8,40.1-53.8,65.1-46.3c28.9,8.7,35.4,39.4,26,70.7l-5,16.6
			l33.9,10.2l4-13.4l28.9,8.7l-21.3,70.5l-28.9-8.7l3.7-12.3l-95.5-28.8l-3.7,12.3L72.2,685.4z M117.9,636.9l38.1,11.5l3-9.9
			c3.8-12.7-0.1-23.4-11.7-26.9c-12.9-3.9-22.2,1.6-26.1,14.3L117.9,636.9z"/>
		<path id="XMLID_11_" class="st0" d="M158.6,456.5l77.6-114l41.8,28.4l-22.3,32.7l-16.8-11.5l-20.6,30.3l26.1,17.8l24.5-35.9
			l25.1,17.1l-24.5,35.9l30.8,21l20.6-30.3l-17.6-12l22.3-32.7l42.7,29.1l-77.6,114l-25.1-17.1l8.1-11.9l-82.1-55.9l-8.1,11.9
			L158.6,456.5z"/>
		<path id="XMLID_13_" class="st0" d="M409.7,386.8l-18.5-24.2l11.3-8.6l-60.3-78.8l-11.3,8.6l-18.3-24l55.4-42.4
			c44-33.6,89.7-25.8,116.3,8.9c31.7,41.4,24.8,84.4-19.8,118.6L409.7,386.8z M386.3,241.4l-6.9,5.3l60.3,78.8l6.9-5.3
			c19-15.1,13.2-39.2-4.2-61.9C427.6,238.9,405.5,226.7,386.3,241.4z"/>
		<path id="XMLID_76_" class="st0" d="M755.8,211L668,237.6l-8.7-28.7l20.8-6.3l-9.1-13.5l-44.9,13.6L626,219l17.1-5.2l8.7,28.7
			l-69.6,21.1l-8.7-28.7l14.9-4.5l0.4-105l-9,2.7l-8.6-28.2l84-25.5L731.7,187l15.3-4.6L755.8,211z M626.2,174l28.7-8.7l-28.8-42.9
			L626.2,174z"/>
		<path id="XMLID_86_" class="st0" d="M818.1,46.2l72.3,1.7l-0.7,30.2l-12.1-0.3l-2.4,99.2l29.5,0.7l0.7-29l38.4,0.9l-1.4,59.4
			l-128-3l0.7-30.4l12.6,0.3l2.4-99.2l-12.6-0.3L818.1,46.2z"/>
		<path id="XMLID_88_" class="st0" d="M1054.4,67.7l70.3,23.5c50.3,16.9,52.6,41.7,44.3,66.5c-9.6,28.6-40.4,34.2-71.4,23.8
			l-16.5-5.5l-11.3,33.6l13.2,4.4l-9.6,28.6l-69.8-23.4l9.6-28.6l12.1,4.1l31.7-94.6l-12.1-4.1L1054.4,67.7z M1101.6,114.9
			l-12.6,37.7l9.8,3.3c12.6,4.2,23.4,0.6,27.3-10.9c4.3-12.8-1-22.3-13.6-26.5L1101.6,114.9z"/>
		<path id="XMLID_91_" class="st0" d="M1233.5,223.1c29.6-39.6,76.4-47.1,114.3-18.8c44.9,33.6,45.6,76.1,14.8,117.3
			c-31,41.4-72.9,49.4-114.3,18.4C1209.9,311.5,1199.2,268.9,1233.5,223.1z M1316.7,287.4c16.6-22.2,23.8-44.4,9.7-55
			c-11-8.5-30.8,1.8-47.8,24.5c-17.9,24-20.7,45.6-9,54.4C1281.2,320,1299.8,310.1,1316.7,287.4z"/>
		<path id="XMLID_94_" class="st0" d="M1355.1,428.3l47.7-32.3l23.9,35.2c-15.9,10.8-7.8,28.5-2.8,36.7c4.5,6.6,12.4,15.1,20.4,9.7
			c14.8-10-40.7-78.5,7.6-111.2c28-19,58.7-1.1,71.2,17.5c10.8,15.9,16.6,35.5,7.5,52.7l17.2-8.9l22.1,32.6l-47.5,32.2l-23.2-34.3
			c14-9.5,14.5-25.9,5.6-39.1c-3.7-5.5-12.3-10.8-18.9-6.3c-19.5,13.2,35.8,85.1-8.7,115.3c-29.5,20-58.9-0.5-74.1-23
			c-13-19.1-13-38.4-9.4-51.4l-16,7.8L1355.1,428.3z"/>
		<path id="XMLID_96_" class="st0" d="M1659.7,712.1l-57.3,15.9l-9-32.4l28.2-7.8l-5.1-18.5l-95.6,26.5l5.1,18.3l-29.3,8.1l-22.8-82
			l29.3-8.1l5,18.1l95.6-26.5l-5.3-19l-28.2,7.8l-9-32.4l57.3-15.9L1659.7,712.1z"/>
	</g>
	<path id="XMLID_50_" class="st0" d="M461.3,1438.2c2.3-3.2,3.2-6.2,2.7-9c-0.5-2.8-2.4-5.3-5.5-7.6l-5.4-3.9l-13.3,18.2l4.8,3.5
		c3.1,2.3,6.2,3.4,9.1,3.3C456.7,1442.6,459.2,1441.1,461.3,1438.2z"/>
	<g id="XMLID_2_">
		<path id="XMLID_49_" class="st0" d="M683.6,1557.6l-3.2-0.8l-9.2,36l3.2,0.8c8.8,2.1,14.6-5.2,17.2-15.6
			C693.9,1569.2,692.4,1559.9,683.6,1557.6z"/>
		<polygon id="XMLID_48_" class="st0" points="1065,1572.8 1075.8,1569.5 1065,1553.4 		"/>
		<path id="XMLID_47_" class="st0" d="M844.7,1580.2c-5.2-0.2-9,7.3-9.2,17.9c-0.3,11.2,3.6,18.4,9.1,18.6c5.4,0.1,8.9-6.9,9.1-17.5
			C853.9,1588.7,851.3,1580.3,844.7,1580.2z"/>
		<path id="XMLID_46_" class="st0" d="M330.8,1352.7c3.8-3.4,3.8-7.2,0.5-10.9l-2.9-3.2l-10.9,9.7l2.6,2.9
			C323.4,1354.9,327.4,1355.7,330.8,1352.7z"/>
		<path id="XMLID_45_" class="st0" d="M908.3,1578.6l-3.3,0.2l2.6,37.1l3.2-0.2c9.1-0.8,12.2-9.5,11.5-20.2
			C921.8,1586.4,917.4,1578,908.3,1578.6z"/>
		<path id="XMLID_4_" class="st0" d="M1563.4,1034l-70.7-89.1c-38.9,311.8-305,553.9-626.8,555.3v0c-0.9,0-1.9,0-2.8,0
			c-0.9,0-1.9,0-2.8,0v0c-321.8-1.3-587.9-243.5-626.8-555.3l-70.7,89.1l-94.5-75c20.6,178.4,100,343.6,228.9,472.5
			c151.1,151.1,352,234.3,565.7,234.3c0,0,0.1,0,0.1,0c0,0,0.1,0,0.1,0c213.7,0,414.6-83.2,565.7-234.3
			c128.9-128.9,208.4-294.1,228.9-472.5L1563.4,1034z M148,1128.8l10.6-4.2l1.7,4.4l34.6-13.8l-1.7-4.4l10.5-4.2l10,25.2l-10.5,4.2
			l-1.7-4.2l-34.6,13.8l4.1,10.3l10.1-4l5.3,13.4l-20.7,8.2L148,1128.8z M193.5,1230.4l-23-46.3l10.2-5.1l2.4,4.8l33.3-16.5
			l-2.4-4.8l10.1-5l23,46.3l-17,8.4l-6.6-13.3l6.8-3.4l-6.1-12.3l-10.6,5.3l7.2,14.6l-10.2,5.1l-7.2-14.6l-12.5,6.2l6.1,12.3
			l7.1-3.5l6.6,13.3L193.5,1230.4z M212,1261.9l29.6-44.9l-2.5-4l9.5-5.8l16.6,26.9l-9.5,5.8l-2.4-3.9l-12.5,16.3
			c-2.9,3.4-5.5,6.3-7.4,7.7l0.2,0.4c2.1-1.1,6.3-2.3,10.9-3.1l20-3.2l-2.3-3.8l9.4-5.9l12.8,20.7l-9.5,5.8l-2.2-3.6l-52.3,8.1
			L212,1261.9z M238.6,1303.6l9.1-6.8l3.2,4.3l29.8-22.3l-3.2-4.3l9.1-6.8l31,41.4l-15.2,11.3l-8.9-11.9l6.1-4.6l-8.2-11l-9.5,7.1
			l9.8,13l-9.1,6.8l-9.8-13l-11.2,8.4l8.2,11l6.4-4.8l8.9,11.9l-15.5,11.6L238.6,1303.6z M308.1,1390.6c-7.5-8.4-6.7-16.3,0.8-23
			c5.8-5.2,6.6-7.2,1.5-12.8l-9.9,8.9l3.5,3.9l-8.4,7.6l-18.5-20.6l8.4-7.6l3.2,3.6l27.8-24.9l-3.2-3.6l8.4-7.5l18.6,20.7
			c13.3,14.8,10,22.9,2.7,29.5c-5,4.5-12,3.7-17.6-1c3.3,5,3,12.4-1.6,16.5c-2.7,2.5-4,4.3-3,5.4c0.9,1,2.1,0.8,3.4-0.4l2.1-1.9
			l3.8,4.3l-3.5,3.1C321.4,1395.5,314.5,1397.7,308.1,1390.6z M345.1,1425.8l-20.5-19.8l7.9-8.2l3.9,3.8l25.8-26.7l-3.9-3.8l7.9-8.1
			l20.5,19.8l-7.9,8.1l-3.8-3.7l-25.8,26.7l3.8,3.7L345.1,1425.8z M385.2,1460.4l4-39.1l-13.8,16.6l5.1,4.2l-7,8.5l-20.3-16.8l7-8.5
			l3.9,3.2l24.1-29.1l-3.8-3.2l7-8.5l19,15.7l-3.8,37.7l12.9-15.8l-4.5-3.7l7-8.5l19.9,16.4l-7,8.5l-4.4-3.6l-31.1,37.6
			L385.2,1460.4z M465.4,1463c-5.8-3.9-14-0.3-18.7,6.8c-4.9,7.3-5.2,15.5,1,19.6c4.1,2.7,6.9,2.2,9.2,1.1l2-3l-4.3-2.9l5.1-7.6
			l23.6,15.9l-5.1,7.6l-2.8-1.9l-11.9,17.8l-14.2-9.5l0.8-6c-3.3,1.6-9.4,1.1-14.9-2.6c-12.5-8.4-15.9-24.7-5.6-40.1
			c10.4-15.5,28.3-19,39.4-11.5c10.3,6.9,9.5,13.4,9.9,15.3l4.9-4.1l10.6,7.1l-14.1,21l-12.7-8.5
			C471.1,1471.6,469.6,1465.8,465.4,1463z M574,1573.5l-24.5-11.6l4.8-10.1l4.4,2.1l12.2-25.9l2.2-4.6l-0.3-0.2
			c-2.3,3.2-5.8,7.8-7.2,9.3l-22.4,26.3l-16.2-7.7l6-35c0.2-1.5,1.3-6.4,2.9-10.4l-0.3-0.1l-14.5,30.5l4.4,2.1l-4.7,10l-21-10
			l4.7-10l4.2,2l16.2-34.1l-4.1-1.9l4.7-10l29.3,13.9l-5.9,32.7l21.2-25.4l29.5,14l-4.7,10l-4.3-2l-16.1,34.1l4.3,2L574,1573.5z
			 M634.8,1594.7l-48.8-17.1l3.8-10.8l5.1,1.8l12.3-35.1l-5.1-1.8l3.7-10.7l48.7,17.1l-6.3,17.9l-14-4.9l2.5-7.2l-12.9-4.5
			l-3.9,11.2l15.4,5.4l-3.8,10.8l-15.4-5.4l-4.6,13.2l12.9,4.5l2.6-7.5l14,4.9L634.8,1594.7z M710.7,1582.9
			c-4.8,18.9-19.1,26.9-39.5,21.7l-25-6.4l2.8-11l5.1,1.3l9.2-36l-5.2-1.3l2.8-11l25.3,6.5C706.5,1551.8,714.8,1567.1,710.7,1582.9z
			 M805.6,1605.9l-3.4-0.4l-2.5,21.3l-17-2l-2-5.7c-2.2,2.9-7.9,5.3-14.4,4.5c-14.9-1.8-25.4-14.7-23.2-33.1
			c2.2-18.6,16.6-29.8,29.8-28.2c12.3,1.5,14.5,7.6,15.7,9.1l2.5-5.9l12.7,1.5l-3,25.1l-15.2-1.8c0.6-6.9-3.4-11.4-8.4-12
			c-6.9-0.8-12.5,6.1-13.5,14.6c-1,8.7,2.4,16.2,9.8,17c4.8,0.6,7.1-1.1,8.7-3.2l0.4-3.6l-5.2-0.6l1.1-9.1l28.3,3.3L805.6,1605.9z
			 M844.2,1630.1c-17.9-0.4-30.4-11.1-29.9-32.5c0.4-18.5,13.1-31,30.8-30.6c21,0.5,30.5,13.3,30,32.6
			C874.7,1618.9,863.6,1630.5,844.2,1630.1z M911.3,1627.1l-25.7,1.8l-0.8-11.4l5.3-0.4l-2.6-37.1l-5.3,0.4l-0.8-11.3l26.1-1.8
			c20.7-1.4,33.4,10.5,34.5,26.8C943.4,1613.6,932.4,1625.6,911.3,1627.1z M1015.3,1614.5c-8.5,1.7-15.2-1.1-19.1-4.3l0.4,6.7
			l-14.7,2.9l-4.2-21.2l15.6-3.1c1.4,7.1,8.7,6.8,12.3,6.3c2.9-0.6,7-2.1,6.3-5.6c-1.3-6.6-33,2.6-37.3-18.9
			c-2.5-12.4,8.2-20.4,16.4-22c7.1-1.4,14.7-0.5,19.3,5.1l-0.5-7.2l14.5-2.9l4.2,21.1l-15.2,3c-1.2-6.2-6.8-8.8-12.7-7.6
			c-2.4,0.5-5.5,2.7-4.9,5.6c1.7,8.7,34.6,0.1,38.5,19.8C1036.6,1605.4,1025.3,1612.5,1015.3,1614.5z M1080.6,1596.6l-3.2-10.8
			l7.8-2.4l-3.4-5.1l-16.8,5.1l0,6.1l6.4-1.9l3.2,10.8l-26.1,7.9l-3.2-10.8l5.6-1.7l0.2-39.4l-3.4,1l-3.2-10.6l31.5-9.5l28.6,42.2
			l5.7-1.7l3.2,10.8L1080.6,1596.6z M1175.6,1561l-4.4-10.2l4.5-1.9l-11.5-26.2l-2-4.6l-0.3,0.1c0.9,3.8,2.1,9.5,2.3,11.5l5,34.2
			l-16.4,7.1l-22.4-27.6c-1-1.2-3.9-5.2-5.9-9l-0.3,0.1l13.4,31l4.5-1.9l4.4,10.1l-21.3,9.2l-4.4-10.1l4.2-1.8l-15-34.7l-4.2,1.8
			l-4.4-10.1l29.8-12.9l20.7,26l-5.2-32.7l30-13l4.4,10.1l-4.3,1.9l15,34.6l4.3-1.9l4.4,10.2L1175.6,1561z M1232.9,1531.8l-44-31
			l-4.1,2.3l-5.5-9.7l27.4-15.7l5.5,9.7l-4,2.3l15.9,13c3.3,3,6.1,5.7,7.5,7.7l0.4-0.2c-1-2.2-2.1-6.4-2.7-11l-2.5-20.1l-3.9,2.2
			l-5.6-9.6l21.1-12.1l5.5,9.7l-3.6,2.1l6.4,52.5L1232.9,1531.8z M1274.8,1506.5l-6.4-9.4l4.5-3l-20.9-30.8l-4.5,3l-6.3-9.4l23.6-16
			l6.3,9.4l-4.4,3l20.9,30.8l4.4-3l6.4,9.4L1274.8,1506.5z M1317.2,1476.9l-7-9l5.5-4.3l-23-29.3l-5.8,4.6l6.8,8.6l-9.9,7.8
			l-13.8-17.5l45.3-35.5l13.8,17.5l-9.9,7.8l-6.8-8.6l-5.7,4.4l23,29.3l5.6-4.4l7,9L1317.2,1476.9z M1369.4,1433.8l-7.8-8.3l5.1-4.8
			l-25.5-27.1l-5.4,5l7.5,8l-9.2,8.6l-15.3-16.2l41.9-39.4l15.3,16.2l-9.2,8.6l-7.5-8l-5.2,4.9l25.5,27.1l5.2-4.9l7.8,8.3
			L1369.4,1433.8z M1408.9,1395.5l-8.4-7.7l3.7-4l-27.3-25.3l-3.7,4l-8.3-7.7l19.3-20.9l8.3,7.7l-3.6,3.9l27.3,25.3l3.6-3.9l8.4,7.7
			L1408.9,1395.5z M1462.6,1333.1l-5.9-1.3c1.3,3.5,0.4,9.5-3.8,14.6c-9.3,11.7-25.9,13.8-40.4,2.3c-14.6-11.6-16.6-29.8-8.3-40.2
			c7.7-9.7,14.1-8.4,16-8.6l-3.7-5.3l8-10l19.8,15.7l-9.6,12c-5.6-4.1-11.5-3.1-14.6,0.9c-4.3,5.4-1.4,13.9,5.3,19.2
			c6.8,5.4,15,6.5,19.7,0.6c3-3.8,2.8-6.7,1.8-9.1l-2.8-2.2l-3.3,4.1l-7.2-5.7l17.7-22.3l7.2,5.7l-2.1,2.7l16.8,13.3L1462.6,1333.1z
			 M1500.3,1279.4l-9.5-6.2l2.7-4.2l-10.9-7l-8.9,13.7l10.9,7l2.9-4.5l9.5,6.1l-15.1,23.3l-9.5-6.1l2.6-4l-31.3-20.3l-2.6,4
			l-9.5-6.1l15.1-23.3l9.5,6.1l-2.9,4.5l10.9,7l8.9-13.7l-10.9-7l-2.7,4.2l-9.5-6.2l15.1-23.4l9.5,6.2l-2.7,4.2l31.3,20.3l2.7-4.2
			l9.5,6.2L1500.3,1279.4z M1521.4,1245.5l-10.1-5.3l2.5-4.8l-32.9-17.3l-2.5,4.8l-10-5.3l24.1-45.7l16.8,8.8l-6.9,13.1l-6.7-3.6
			l-6.4,12.1l10.5,5.5l7.6-14.4l10.1,5.3l-7.6,14.4l12.4,6.5l6.4-12.1l-7.1-3.7l6.9-13.1l17.1,9L1521.4,1245.5z M1544.7,1173.4
			l2.7-6.5l-34.3-14.4l-2.8,6.8l10.1,4.2l-4.9,11.6l-20.6-8.6l22.2-53l20.5,8.6l-4.9,11.6l-10.1-4.2l-2.8,6.6l34.3,14.4l2.7-6.6
			l10.5,4.4l-12.3,29.4L1544.7,1173.4z"/>
	</g>
	<polygon id="XMLID_5_" class="st0" points="148.7,822 166.3,857.8 205.8,863.5 177.2,891.4 184,930.7 148.7,912.1 113.3,930.7 
		120.1,891.4 91.5,863.5 131,857.8 	"/>
	<polygon id="XMLID_6_" class="st0" points="1577.7,822 1595.4,857.8 1634.9,863.5 1606.3,891.4 1613,930.7 1577.7,912.1 
		1542.4,930.7 1549.1,891.4 1520.6,863.5 1560.1,857.8 	"/>
	<g id="XMLID_53_">
		<path id="XMLID_57_" class="st0" d="M1203.6,992.4c-14.9,0-29.3,2.5-42.7,7.2l-11-27.7c-1.1-2.8-0.9-5.8,0.5-8.5
			c1.4-2.7,4-4.6,7-5.2c60.8-12.7,105-67.1,105-129.3c0-182.2-148.2-330.5-330.5-330.5H750.2c-5.8,0-10.4,4.7-10.4,10.4
			c0,5.8,4.7,10.4,10.4,10.4H932c170.7,0,309.6,138.9,309.6,309.6c0,36.4-17.9,69.5-46,90v-10.3c0,0-4-12-13-13.5
			c-9-1.5-26.1-2.6-30.6-1c-12.4-3.9-70.1-33.1-80.6-36.6l-4.4-6.4l4.4-2.3c-1.6-7.3-4.4-14.7-8.2-22.3c-4.1-8.2-4.4-17.7-0.4-26
			c3.2-6.6,8.8-11.8,15.7-14.4l14.8-5.7h13.5l0,0c1.4,2.8,4.2,4.5,7.3,4.5c3.7,0,6.9-2.5,7.9-6l5.1-19.1h9.4v-3.4l-6.4-9v-19.9h4.5
			h23.4v-3.8l-23.3-2c0-20.3-12.5-34.3-32.8-34.3c-29.3,0-37.8,26.5-37.8,55.6l11,4l-0.3,7.8l-11.8,8h-31.3
			c-36,3.9-68.5,13.8-98.1,28.2V585.6c0-20.3-16.4-36.7-36.7-36.7H437.3c-20.3,0-36.7,16.4-36.7,36.7v512.6
			c0,20.3,16.4,36.7,36.7,36.7h76.5c-0.3-3.8-0.5-7.6-0.5-11.5c0-7.6,0.6-15,1.6-22.2h-56.3c-15.1,0-27.3-12.2-27.3-27.3V610
			c0-15.1,12.2-27.3,27.3-27.3h417c15.1,0,27.3,12.2,27.3,27.3v463.8c0,15.1-12.2,27.3-27.3,27.3h-56.3c1.1,7.3,1.6,14.7,1.6,22.2
			c0,3.9-0.2,7.7-0.5,11.5H897c2.5,0,4.9-0.3,7.2-0.7l45.8,1.7c0,0.1,0,0.2,0,0.3c0,21.1,17.1,38.4,38.2,38.5l-1.3,6.1l14.1,10.1
			l3,16.5h31.7l2.3-6.8c0,0,14.3-6,13.5-8.3c-0.8-2.3-2.3-11.6-2.3-11.6l-20.3,3.4l-12.6-21.6c6.5-6.9,10.6-16.2,10.6-26.5
			c0-8.9-3-17-8.1-23.6l117.4-118.5l5.4,13.7c-41.1,22.1-69.2,65.6-69.2,115.4c0,72.2,58.8,131,131,131c72.2,0,131-58.8,131-131
			C1334.6,1051.1,1275.8,992.4,1203.6,992.4z M924.6,1122.4c5.7-6.5,9.2-14.9,9.2-24.2V975.3c7.1,13.7,15.8,33.3,19.5,52.7
			c0.5,2.5,1,5,1.5,7.5c-6.7,11.4-13.6,24.9-12,29.3c3,8,6.9,12,21,13c2.2,9.8,4.3,18.3,5.9,24.9c-8,4.6-14.2,11.9-17.3,20.7
			L924.6,1122.4z M977.1,1124.3l-16-0.6c2.3-5.1,6-9.5,10.7-12.6C973.1,1115.2,975,1119.8,977.1,1124.3z M976.7,941.2v-11.6h42.1
			v11.6H976.7z M958.4,1136.2C958.4,1136.2,958.4,1136.2,958.4,1136.2l22.6,0.8l-15.3,18.9C961.1,1150.6,958.4,1143.7,958.4,1136.2z
			 M990,1166.3c-0.5,0-0.9,0.1-1.4,0.1c-6.1,0-11.8-1.8-16.6-5l14.7-18.2c1.1,2.2,1.8,3.7,1.8,4.2
			C988.5,1149.7,990,1166.2,990,1166.3L990,1166.3z M995,972.1h-3.8l-6.5-12.5v-4h20.5v4L995,972.1z M1013,1153.8l-2.7-32.4l2.7-2.7
			c3.6,5,5.7,11,5.7,17.5C1018.8,1142.8,1016.6,1148.8,1013,1153.8z M1130.6,979.5l0.8,2l-121.5,122.6c-0.3-0.2-0.7-0.4-1-0.6
			l-2.1-25.5c4.3-0.1,7.1-0.2,7.1-0.2s8.7-0.3,0-10c-3.2-3.5-6.1-6.3-8.6-8.4l-4-48.7l50.8-57h80.1
			C1127.8,961.7,1127.3,971.1,1130.6,979.5z M1063.1,941.2l11.1-12.4l-6.8-29.3l-103.7-41.7l-0.8-7.9l51.1-10.5l11.3,27.8l8.3-3
			c0,0,12.8,21.3,42.8,28.3s51.1,10,51.1,10s3,0.4,7.6,1l-6.3,0l-0.1,8c0,6.2,4.7,20.3,8.2,29.7H1063.1z M1141.2,911.6l0.1-7.2
			c14.2,2,34.5,5.2,35.8,7.1c2,3,5,10.5,6.5,10.5c0.7,0,3.7,0.2,6.5,0.5c-11.1,7.1-23.5,12.4-36.9,15.2c-1.3,0.3-2.6,0.6-3.8,1.1
			C1145,927.2,1141.2,915.1,1141.2,911.6z M1203.6,1227.8c-57.6,0-104.4-46.8-104.4-104.4c0-38.7,21.2-72.4,52.5-90.4l46.4,117.6
			c1.6,4.1,5.6,6.6,9.7,6.6c1.3,0,2.6-0.2,3.8-0.7c5.4-2.1,8-8.2,5.9-13.5l-46.8-118.5c10.4-3.4,21.4-5.4,32.9-5.4
			c57.6,0,104.4,46.8,104.4,104.4S1261.2,1227.8,1203.6,1227.8z"/>
		<path id="XMLID_54_" class="st0" d="M667.2,992.4c-72.2,0-131,58.8-131,131c0,72.2,58.8,131,131,131s131-58.8,131-131
			C798.2,1051.1,739.4,992.4,667.2,992.4z M667.2,1227.8c-57.6,0-104.4-46.8-104.4-104.4c0-57.6,46.8-104.4,104.4-104.4
			s104.4,46.8,104.4,104.4C771.6,1180.9,724.8,1227.8,667.2,1227.8z"/>
	</g>
</g>
</svg>
