<?xml version="1.0" encoding="utf-8"?>
<!-- Generator: Adobe Illustrator 19.0.0, SVG Export Plug-In . SVG Version: 6.00 Build 0)  -->
<svg version="1.1" id="Layer_1" xmlns="http://www.w3.org/2000/svg" xmlns:xlink="http://www.w3.org/1999/xlink" x="0px" y="0px"
	 viewBox="0 0 1233.3 311.8" style="enable-background:new 0 0 1233.3 311.8;" xml:space="preserve">
<style type="text/css">
	.st0{fill:#080D12;}
</style>
<g id="XMLID_1_">
	<g id="XMLID_26_">
		<g id="XMLID_86_">
			<path id="XMLID_90_" class="st0" d="M1131.2,196.4c-5.2,0-10.2,0.9-14.9,2.5l-3.8-9.7c-0.4-1-0.3-2,0.2-3
				c0.5-0.9,1.4-1.6,2.4-1.8c21.2-4.4,36.6-23.4,36.6-45.1c0-63.5-51.7-115.2-115.2-115.2h-63.4c-2,0-3.6,1.6-3.6,3.6
				s1.6,3.6,3.6,3.6h63.4c59.5,0,107.9,48.4,107.9,107.9c0,12.7-6.3,24.2-16,31.4v-3.6c0,0-1.4-4.2-4.5-4.7
				c-3.1-0.5-9.1-0.9-10.7-0.3c-4.3-1.4-24.4-11.5-28.1-12.7l-1.5-2.2l1.5-0.8c-0.6-2.5-1.5-5.1-2.9-7.8c-1.4-2.8-1.5-6.2-0.1-9.1
				c1.1-2.3,3.1-4.1,5.5-5l5.2-2h4.7l0,0c0.5,1,1.5,1.6,2.5,1.6c1.3,0,2.4-0.9,2.7-2.1l1.8-6.7h3.3v-1.2l-2.2-3.1V104h1.6h8.2v-1.3
				l-8.1-0.7c0-7.1-4.4-12-11.4-12c-10.2,0-13.2,9.3-13.2,19.4l3.8,1.4l-0.1,2.7l-4.1,2.8h-10.9c-12.6,1.4-23.9,4.8-34.2,9.8V54.5
				c0-7.1-5.7-12.8-12.8-12.8H864c-7.1,0-12.8,5.7-12.8,12.8v178.7c0,7.1,5.7,12.8,12.8,12.8h26.7c-0.1-1.3-0.2-2.7-0.2-4
				c0-2.6,0.2-5.2,0.6-7.8h-19.6c-5.3,0-9.5-4.3-9.5-9.5V63c0-5.3,4.3-9.5,9.5-9.5h145.4c5.3,0,9.5,4.3,9.5,9.5v161.7
				c0,5.3-4.3,9.5-9.5,9.5h-19.6c0.4,2.5,0.6,5.1,0.6,7.8c0,1.4-0.1,2.7-0.2,4h26.7c0.9,0,1.7-0.1,2.5-0.3l16,0.6c0,0,0,0.1,0,0.1
				c0,7.4,6,13.4,13.3,13.4l-0.4,2.1l4.9,3.5l1.1,5.8h11l0.8-2.4c0,0,5-2.1,4.7-2.9c-0.3-0.8-0.8-4.1-0.8-4.1l-7.1,1.2l-4.4-7.5
				c2.3-2.4,3.7-5.7,3.7-9.2c0-3.1-1.1-5.9-2.8-8.2l40.9-41.3l1.9,4.8c-14.3,7.7-24.1,22.9-24.1,40.3c0,25.2,20.5,45.7,45.7,45.7
				s45.7-20.5,45.7-45.7S1156.4,196.4,1131.2,196.4z M1033.9,241.7c2-2.3,3.2-5.2,3.2-8.4v-42.8c2.5,4.8,5.5,11.6,6.8,18.4
				c0.2,0.9,0.3,1.8,0.5,2.6c-2.3,4-4.7,8.7-4.2,10.2c1,2.8,2.4,4.2,7.3,4.5c0.8,3.4,1.5,6.4,2.1,8.7c-2.8,1.6-5,4.2-6,7.2
				L1033.9,241.7z M1052.2,242.4l-5.6-0.2c0.8-1.8,2.1-3.3,3.7-4.4C1050.8,239.2,1051.5,240.8,1052.2,242.4z M1052.1,178.5v-4.1
				h14.7v4.1H1052.1z M1045.7,246.5C1045.7,246.5,1045.7,246.5,1045.7,246.5l7.9,0.3l-5.3,6.6
				C1046.6,251.5,1045.7,249.1,1045.7,246.5z M1056.7,257c-0.2,0-0.3,0.1-0.5,0.1c-2.1,0-4.1-0.6-5.8-1.7l5.1-6.3
				c0.4,0.8,0.6,1.3,0.6,1.5C1056.2,251.2,1056.7,257,1056.7,257L1056.7,257z M1058.4,189.3h-1.3l-2.3-4.4v-1.4h7.2v1.4
				L1058.4,189.3z M1064.7,252.6l-0.9-11.3l0.9-1c1.2,1.7,2,3.8,2,6.1C1066.7,248.8,1066,250.9,1064.7,252.6z M1105.7,191.9l0.3,0.7
				l-42.4,42.8c-0.1-0.1-0.2-0.1-0.4-0.2l-0.7-8.9c1.5,0,2.5-0.1,2.5-0.1s3-0.1,0-3.5c-1.1-1.2-2.1-2.2-3-2.9l-1.4-17l17.7-19.9
				h27.9C1104.7,185.7,1104.5,188.9,1105.7,191.9z M1082.2,178.5l3.9-4.3l-2.4-10.2l-36.1-14.5l-0.3-2.7l17.8-3.7l3.9,9.7l2.9-1
				c0,0,4.5,7.4,14.9,9.9c10.5,2.4,17.8,3.5,17.8,3.5s1.1,0.1,2.6,0.3l-2.2,0l0,2.8c0,2.2,1.6,7.1,2.9,10.4H1082.2z M1109.4,168.2
				l0-2.5c5,0.7,12,1.8,12.5,2.5c0.7,1,1.7,3.7,2.3,3.7c0.3,0,1.3,0.1,2.3,0.2c-3.9,2.5-8.2,4.3-12.9,5.3c-0.5,0.1-0.9,0.2-1.3,0.4
				C1110.8,173.6,1109.4,169.4,1109.4,168.2z M1131.2,278.4c-20.1,0-36.4-16.3-36.4-36.4c0-13.5,7.4-25.2,18.3-31.5l16.2,41
				c0.6,1.4,1.9,2.3,3.4,2.3c0.4,0,0.9-0.1,1.3-0.3c1.9-0.7,2.8-2.9,2-4.7l-16.3-41.3c3.6-1.2,7.5-1.9,11.5-1.9
				c20.1,0,36.4,16.3,36.4,36.4S1151.2,278.4,1131.2,278.4z"/>
			<path id="XMLID_87_" class="st0" d="M944.1,196.4c-25.2,0-45.7,20.5-45.7,45.7c0,25.2,20.5,45.7,45.7,45.7
				c25.2,0,45.7-20.5,45.7-45.7C989.8,216.9,969.3,196.4,944.1,196.4z M944.1,278.4c-20.1,0-36.4-16.3-36.4-36.4
				c0-20.1,16.3-36.4,36.4-36.4s36.4,16.3,36.4,36.4C980.5,262.1,964.2,278.4,944.1,278.4z"/>
		</g>
		<g id="XMLID_27_">
			<g id="XMLID_28_">
				<path id="XMLID_84_" class="st0" d="M58.6,248.7h11.9v5h-2v16.3h4.8v-4.8h6.3v9.8h-21v-5h2.1v-16.3h-2.1V248.7z"/>
				<path id="XMLID_82_" class="st0" d="M83.4,248.7H106v8.3h-6.5v-3.3h-6v5.2h7.1v5h-7.1v6.1h6v-3.5h6.5v8.5H83.4v-5h2.4v-16.3
					h-2.4V248.7z"/>
				<path id="XMLID_80_" class="st0" d="M124.7,266.5c0.1-1,0.6-2.9,1.4-4.8l3.4-8.2h-2l0-4.9h10.7v4.9h-1.8l-9,21.3h-6.9l-9.9-21.3
					h-2.1v-4.9h13.8l0,4.9h-2l3.2,8.4c0.6,1.8,1.1,3.5,1.2,4.5H124.7z"/>
				<path id="XMLID_78_" class="st0" d="M140.6,248.7h22.6v8.3h-6.5v-3.3h-6v5.2h7.1v5h-7.1v6.1h6v-3.5h6.5v8.5h-22.6v-5h2.4v-16.3
					h-2.4V248.7z"/>
				<path id="XMLID_75_" class="st0" d="M166.9,248.7h12.2c8.7,0,10.4,3.5,10.4,7.7c0,2.9-2.3,5-5.4,5.4c2.6,0.4,4.9,2.6,4.9,5.3
					c0,1.6,0.2,2.6,0.9,2.6c0.6,0,0.9-0.5,0.9-1.2v-1.2h2.5v2.1c0,3.1-1.3,6-5.5,6c-4.9,0-7.3-2.6-7.3-7c0-3.4-0.4-4.2-3.8-4.2v5.8
					h2.3v5h-12.1v-5h2.1v-16.4h-2.1V248.7z M176.8,253.5v6.4h1.7c2.2,0,3.6-1.1,3.6-3c0-2.2-1.2-3.3-3.4-3.3H176.8z"/>
				<path id="XMLID_73_" class="st0" d="M196.5,248.7h12.5v5h-2.3v16.3h2.3v5h-12.5v-5h2.4v-16.3h-2.4V248.7z"/>
				<path id="XMLID_71_" class="st0" d="M241.4,253.5h-2.5v21.4h-8.1l-9.6-14.3v9.5h2.9v4.8h-11.5V270h2.2v-16.5h-2.2v-4.8h10.8
					l9.2,13.8l0-8.9h-2.5v-4.8h11.3V253.5z"/>
				<path id="XMLID_69_" class="st0" d="M262.6,272.5c-0.8,1.4-3.2,2.7-6,2.7c-6.6,0-11.8-5.1-11.8-13.2c0-8.2,5.7-13.8,11.5-13.8
					c5.4,0,6.7,2.6,7.3,3.2l0.8-2.7h5.6v11.1h-6.7c-0.1-3-2.1-4.8-4.3-4.8c-3,0-5.1,3.3-5.1,7.1c0,3.8,1.9,6.9,5.1,6.9
					c2.1,0,3-0.9,3.6-1.8v-1.6h-2.3v-4h12.5v4h-1.5v9.4h-7.5L262.6,272.5z"/>
				<path id="XMLID_67_" class="st0" d="M313.4,255.3c-0.3,1.7-0.8,4.2-1.1,5l-3.9,14.6h-7.8l-4.2-15c-0.2-0.6-0.7-2.8-0.8-4.7h-0.1
					V270h2.1v4.8h-10.2V270h2v-16.5h-2v-4.8h14.2l3.8,14l3.6-14h14.3v4.8h-2.1V270h2.1v4.9h-11.9V270h2.1l0-12.5v-2.2H313.4z"/>
				<path id="XMLID_65_" class="st0" d="M327,248.7h22.6v8.3h-6.5v-3.3h-6v5.2h7.1v5h-7.1v6.1h6v-3.5h6.5v8.5H327v-5h2.4v-16.3H327
					V248.7z"/>
				<path id="XMLID_62_" class="st0" d="M353.4,274.9v-5h2.3v-16.3h-2.3v-5h11.4c9.1,0,14.3,5.6,14.3,12.8c0,8.6-5.2,13.5-14.4,13.5
					H353.4z M364.8,253.6h-1.4v16.3h1.4c4-0.1,5.6-3.8,5.6-8.5C370.5,257.4,368.8,253.6,364.8,253.6z"/>
				<path id="XMLID_60_" class="st0" d="M411,272.5c-0.8,1.4-3.2,2.7-6,2.7c-6.6,0-11.8-5.1-11.8-13.2c0-8.2,5.7-13.8,11.5-13.8
					c5.4,0,6.7,2.6,7.3,3.2l0.8-2.7h5.6v11.1h-6.7c-0.1-3-2.1-4.8-4.3-4.8c-3,0-5.1,3.3-5.1,7.1c0,3.8,1.9,6.9,5.1,6.9
					c2.1,0,3-0.9,3.6-1.8v-1.6h-2.3v-4h12.5v4h-1.5v9.4h-7.5L411,272.5z"/>
				<path id="XMLID_57_" class="st0" d="M424.1,261.6c0-8.1,5.4-13.7,13.2-13.7c9.2,0,13.5,5.5,13.5,14c0,8.5-4.7,13.7-13.2,13.7
					C429.7,275.6,424.1,271,424.1,261.6z M441.4,261.9c0-4.5-1.2-8.2-4.1-8.2c-2.3,0-3.9,3.3-3.9,7.9c0,4.9,1.8,8,4.2,8
					C439.9,269.7,441.4,266.6,441.4,261.9z"/>
				<path id="XMLID_54_" class="st0" d="M454.1,274.9v-5h2.3v-16.3h-2.3v-5h11.4c9.1,0,14.3,5.6,14.3,12.8c0,8.6-5.2,13.5-14.4,13.5
					H454.1z M465.6,253.6h-1.4v16.3h1.4c4-0.1,5.6-3.8,5.6-8.5C471.2,257.4,469.5,253.6,465.6,253.6z"/>
				<path id="XMLID_52_" class="st0" d="M494.2,274.9v-9.5h7c0,3.1,3.1,3.7,4.7,3.8c1.3,0,3.2-0.3,3.2-1.9c0-2.9-14.4-1.7-14.4-11.3
					c0-5.6,5.3-8.1,8.9-8.1c3.2,0,6.3,1,7.8,3.8l0.4-3.2h6.5v9.4h-6.8c0-2.8-2.2-4.4-4.8-4.4c-1.1,0-2.6,0.7-2.6,2
					c0,3.9,14.9,3,14.9,11.8c0,5.9-5.5,8-9.9,8c-3.8,0-6.4-1.8-7.8-3.5l-0.4,2.9H494.2z"/>
				<path id="XMLID_49_" class="st0" d="M552.1,274.9h-15V270h3.6l-0.8-2.6h-7.7l-0.8,2.6h2.9v4.9h-11.9V270h2.6l5.1-16.5h-1.5v-4.8
					h14.4l6.6,21.3h2.6V274.9z M533.6,262.9h4.9l-2.5-8.1L533.6,262.9z"/>
				<path id="XMLID_47_" class="st0" d="M581.5,255.3c-0.3,1.7-0.8,4.2-1.1,5l-3.9,14.6h-7.8l-4.2-15c-0.2-0.6-0.7-2.8-0.8-4.7h-0.1
					V270h2.1v4.8h-10.2V270h2v-16.5h-2v-4.8h14.2l3.8,14l3.6-14h14.3v4.8h-2.1V270h2.1v4.9h-11.9V270h2.1l0-12.5v-2.2H581.5z"/>
				<path id="XMLID_45_" class="st0" d="M610.2,266.5c0.1-1,0.6-2.9,1.4-4.8l3.4-8.2h-2l0-4.9h10.7v4.9h-1.8l-9,21.3h-6.9l-9.9-21.3
					h-2.1v-4.9h13.8l0,4.9h-2l3.2,8.4c0.6,1.8,1.1,3.5,1.2,4.5H610.2z"/>
				<path id="XMLID_43_" class="st0" d="M626,248.7h12.5v5h-2.3v16.3h2.3v5H626v-5h2.4v-16.3H626V248.7z"/>
				<path id="XMLID_41_" class="st0" d="M667,248.7v9.8h-5.5v-4.8h-3.2v16.3h3.1v5h-14v-5h3.1v-16.3h-3.2v4.8h-5.5v-9.8H667z"/>
				<path id="XMLID_39_" class="st0" d="M695.2,248.7v9.8h-5.5v-4.8h-3.2v16.3h3.1v5h-14v-5h3.1v-16.3h-3.2v4.8H670v-9.8H695.2z"/>
				<path id="XMLID_37_" class="st0" d="M698.5,248.7H711v5h-2.3v16.3h2.3v5h-12.5v-5h2.4v-16.3h-2.4V248.7z"/>
				<path id="XMLID_35_" class="st0" d="M732.2,272.5c-0.8,1.4-3.2,2.7-6,2.7c-6.6,0-11.8-5.1-11.8-13.2c0-8.2,5.7-13.8,11.5-13.8
					c5.4,0,6.7,2.6,7.3,3.2l0.8-2.7h5.6v11.1h-6.7c-0.1-3-2.1-4.8-4.3-4.8c-3,0-5.1,3.3-5.1,7.1c0,3.8,1.9,6.9,5.1,6.9
					c2.1,0,3-0.9,3.6-1.8v-1.6h-2.3v-4h12.5v4h-1.5v9.4h-7.5L732.2,272.5z"/>
				<path id="XMLID_33_" class="st0" d="M745.7,248.7h12.2v5h-2.3v5.7h7.1v-5.7h-2.2v-5h12.2v5h-2.2v16.3h2.2v5h-12.2v-5h2.2v-5.7
					h-7.1v5.7h2.3v5h-12.2v-5h2.1v-16.3h-2.1V248.7z"/>
				<path id="XMLID_31_" class="st0" d="M776.4,248.7H799v8.3h-6.5v-3.3h-6v5.2h7.1v5h-7.1v6.1h6v-3.5h6.5v8.5h-22.6v-5h2.4v-16.3
					h-2.4V248.7z"/>
				<path id="XMLID_29_" class="st0" d="M827.6,248.7v9.8H822v-4.8h-3.2v16.3h3.1v5h-14v-5h3.1v-16.3h-3.2v4.8h-5.5v-9.8H827.6z"/>
			</g>
		</g>
	</g>
	<g id="XMLID_2_">
		<path id="XMLID_23_" d="M56.5,134.5h35.7c25.6,0,30.4,13.6,30.4,29.2c0,18-13.2,27-29,27h-8.4v21.1h6.7v18H56.5v-18h6.2v-59.5
			h-6.2V134.5z M85.2,152.3V176h5c6.4,0,10.8-4.1,10.8-11.3c0-8-3.9-12.4-10.2-12.4H85.2z"/>
		<path id="XMLID_21_" d="M138,134.5h66.4v30.1h-19.1v-12.1h-17.6v18.8h20.9v18.1h-20.9v22.2h17.6V199h19.1v30.8H138v-18.1h6.9
			v-59.2H138V134.5z"/>
		<path id="XMLID_18_" d="M221,229.9v-18.1h6.8v-59.2H221v-18h33.6c26.7,0,41.9,20.3,41.9,46.4c0,31.1-15.2,49-42.3,49H221z
			 M254.6,152.5h-4.2v59.2h4.2c11.7-0.3,16.5-13.8,16.5-30.8C271.1,166.3,266.3,152.5,254.6,152.5z"/>
		<path id="XMLID_15_" d="M397.6,229.9h-44.2V212h10.5l-2.3-9.3H339l-2.3,9.3h8.6v17.9h-35V212h7.5l14.9-59.9h-4.5v-17.6h42.3
			l19.5,77.5h7.7V229.9z M343.1,186.4h14.4l-7.3-29.5L343.1,186.4z"/>
		<path id="XMLID_13_" d="M413.1,134.5h34.8v18h-5.8v59.2h14.2v-17.3h18.5v35.5h-61.7v-18.1h6.1v-59.2h-6.1V134.5z"/>
		<path id="XMLID_10_" d="M491.3,134.5H527c25.6,0,30.4,13.6,30.4,29.2c0,18-13.2,27-29,27h-8.4v21.1h6.7v18h-35.5v-18h6.2v-59.5
			h-6.2V134.5z M520.1,152.3V176h5c6.4,0,10.8-4.1,10.8-11.3c0-8-3.9-12.4-10.2-12.4H520.1z"/>
		<path id="XMLID_7_" d="M571.8,181.7c0-29.5,15.9-49.8,38.7-49.8c27,0,39.6,20,39.6,50.7c0,30.8-13.9,49.6-38.8,49.6
			C588.2,232.3,571.8,215.8,571.8,181.7z M622.5,182.7c0-16.5-3.6-29.7-12.1-29.7c-6.7-0.1-11.4,11.9-11.4,28.8
			c0,17.9,5.2,29.2,12.2,29.2C618.2,210.9,622.5,199.6,622.5,182.7z"/>
		<path id="XMLID_5_" d="M665.5,229.9v-34.4h20.5c0,11.5,9.3,13.4,13.9,13.6c3.9,0,9.4-1.1,9.4-6.8c0-10.6-42.3-6.1-42.3-40.9
			c0-20.2,15.4-29.3,26.2-29.3c9.3,0,18.6,3.7,23,13.9l1.1-11.5h19v34.2h-19.9c0-10.1-6.4-15.8-14.1-15.8c-3.2,0-7.6,2.5-7.6,7.2
			c0,14,43.6,10.8,43.6,42.8c0,21.3-16.1,28.9-29.2,28.9c-11.1,0-18.8-6.4-23-12.5l-1.2,10.5H665.5z"/>
		<path id="XMLID_3_" d="M827.6,134.5V170h-16.2v-17.5h-9.3v59.2h9.1v18.1h-41v-18.1h9v-59.2h-9.5V170h-16.2v-35.5H827.6z"/>
	</g>
</g>
</svg>
